<svg width="22" height="22" viewBox="0 0 22 22" fill="none" xmlns="http://www.w3.org/2000/svg">
<g clip-path="url(#clip0_1_6206)">
<g clip-path="url(#clip1_1_6206)">
<g clip-path="url(#clip2_1_6206)">
<path d="M11.083 18.294C15.1804 18.294 18.502 14.9724 18.502 10.875C18.502 6.77764 15.1804 3.45605 11.083 3.45605C6.98565 3.45605 3.66406 6.77764 3.66406 10.875C3.66406 14.9724 6.98565 18.294 11.083 18.294Z" fill="#FFF4D9"/>
<path d="M13.2049 8.88338C12.6059 9.61528 12.0404 10.3639 11.5084 11.1294C11.2425 11.5123 10.9759 11.9116 10.7263 12.3102L8.5966 9.68192C8.47544 9.53655 8.30497 9.44092 8.11775 9.41331C7.93054 9.38571 7.73971 9.42806 7.58175 9.53227C7.49938 9.58762 7.42881 9.65876 7.37413 9.74158C7.31945 9.82439 7.28175 9.91724 7.26321 10.0147C7.24467 10.1122 7.24566 10.2124 7.26612 10.3095C7.28658 10.4066 7.32611 10.4987 7.38242 10.5804L10.061 14.5562C10.1486 14.6791 10.263 14.7804 10.3956 14.8524C10.5282 14.9245 10.6755 14.9653 10.8262 14.9718C10.9893 14.974 11.1502 14.9337 11.293 14.855C11.4359 14.7763 11.5558 14.6619 11.6411 14.5229C11.7908 14.2569 12.5396 12.8761 13.0383 12.1272C13.523 11.3784 14.0198 10.6465 14.5687 9.93155C15.1013 9.21601 15.6666 8.51743 16.2652 7.85218C16.8465 7.17703 17.4629 6.53291 18.1119 5.92246L18.1283 5.9061C18.2708 5.77193 18.3557 5.58762 18.365 5.39206C18.3743 5.1965 18.3072 5.00498 18.1779 4.85793C18.1131 4.78254 18.0339 4.72088 17.9449 4.6766C17.8559 4.63231 17.7589 4.6063 17.6597 4.60009C17.5605 4.59388 17.4611 4.60759 17.3672 4.64043C17.2734 4.67327 17.1871 4.72456 17.1134 4.79129C16.3815 5.44018 15.7326 6.08907 15.0837 6.77069C14.4223 7.44281 13.7952 8.14794 13.2049 8.88338Z" fill="#CA1F34" stroke="#FFF4D9" stroke-width="0.424114"/>
<path d="M18.7421 8.3142C19.3583 10.0435 19.3608 11.9322 18.7491 13.6632C18.1375 15.3942 16.9489 16.862 15.383 17.8202C13.817 18.7785 11.9691 19.1688 10.1494 18.9257C8.32975 18.6826 6.64911 17.8208 5.38967 16.4851C4.13023 15.1494 3.36867 13.421 3.23286 11.5902C3.09705 9.75937 3.59525 7.93756 4.64382 6.43063C5.6924 4.92369 7.2275 3.82339 8.99139 3.31445C10.7553 2.8055 12.6406 2.9189 14.3308 3.63561L13.9127 4.62077C12.4481 3.99948 10.8144 3.901 9.28586 4.34187C7.75728 4.78273 6.42693 5.7361 5.51819 7.04188C4.60944 8.34767 4.17763 9.92636 4.29526 11.5129C4.41289 13.0994 5.0728 14.5972 6.16418 15.7547C7.25557 16.9121 8.71197 17.6589 10.2888 17.8695C11.8657 18.0801 13.4671 17.7418 14.824 16.9113C16.1809 16.0808 17.2107 14.8088 17.7406 13.3087C18.2705 11.8087 18.2682 10.172 17.734 8.67348L18.7421 8.3142Z" fill="#CA1F34"/>
</g>
</g>
</g>
<defs>
<clipPath id="clip0_1_6206">
<rect width="22" height="22" fill="white"/>
</clipPath>
<clipPath id="clip1_1_6206">
<rect width="16" height="16" fill="white" transform="translate(3.10156 3)"/>
</clipPath>
<clipPath id="clip2_1_6206">
<rect width="16" height="16" fill="white" transform="translate(3.20312 3)"/>
</clipPath>
</defs>
</svg>
