<svg xmlns="http://www.w3.org/2000/svg" width="18.308" height="14.877" viewBox="0 0 18.308 14.877">
  <path id="icons8-twitter" d="M20.307,6.2a7.5,7.5,0,0,1-2.157.591A3.762,3.762,0,0,0,19.8,4.711a7.531,7.531,0,0,1-2.386.912,3.757,3.757,0,0,0-6.5,2.569,3.8,3.8,0,0,0,.1.856A10.663,10.663,0,0,1,3.273,5.123a3.763,3.763,0,0,0,1.162,5.015,3.748,3.748,0,0,1-1.7-.47v.047A3.756,3.756,0,0,0,5.748,13.4a3.757,3.757,0,0,1-.99.132,3.825,3.825,0,0,1-.706-.067A3.76,3.76,0,0,0,7.56,16.071,7.579,7.579,0,0,1,2,17.626a10.633,10.633,0,0,0,5.758,1.687A10.613,10.613,0,0,0,18.442,8.627q0-.244-.011-.486A7.643,7.643,0,0,0,20.307,6.2Z" transform="translate(-1.999 -4.436)" fill="#fff"/>
</svg>
